<svg width="1086" height="201" viewBox="0 0 1086 201" fill="none" xmlns="http://www.w3.org/2000/svg">
<rect y="0.899994" width="69.913" height="41.7021" rx="10" fill="#FF3F3F"/>
<rect y="80.0489" width="69.913" height="120.851" rx="10" fill="#FD8C3A"/>
<rect x="99.0435" y="80.0489" width="168.957" height="41.7021" rx="10" fill="#FD8C3A"/>
<rect x="99.0435" y="159.198" width="69.913" height="41.7021" rx="10" fill="#FD8C3A"/>
<rect x="198.087" y="159.198" width="69.913" height="41.7021" rx="10" fill="#FD8C3A"/>
<rect x="99.0435" y="0.899994" width="69.913" height="41.7021" rx="10" fill="#FF3F3F"/>
<rect x="198.087" y="0.899994" width="69.913" height="41.7021" rx="10" fill="#FF3F3F"/>
<path d="M397.7 44.9C397.7 50.4228 393.223 54.9 387.7 54.9H367.8C362.277 54.9 357.8 50.4228 357.8 44.9V39.6C357.8 38 357.2 36.6 356 35.4C355 34.2 353.7 33.6 352.1 33.6H335.6C334 33.6 332.6 34.2 331.4 35.4C330.4 36.6 329.9 38 329.9 39.6V74.1C329.9 75.7 330.4 77.1 331.4 78.3C332.6 79.5 334 80.1 335.6 80.1H362.6C387.4 80.5 399.8 93.7 399.8 119.7V161.4C399.8 187.8 387.4 201 362.6 201H327.2C302.4 201 290 187.8 290 161.4V151.3C290 145.777 294.477 141.3 300 141.3H319.9C325.423 141.3 329.9 145.777 329.9 151.3V162.9C329.9 164.5 330.4 165.9 331.4 167.1C332.6 168.3 334 168.9 335.6 168.9H354.2C355.8 168.9 357.1 168.3 358.1 167.1C359.3 165.9 359.9 164.5 359.9 162.9V124.8C359.9 123.2 359.3 121.8 358.1 120.6C357.1 119.4 355.8 118.8 354.2 118.8H327.2C302.4 118.8 290 105.6 290 79.2V40.5C290 14.1 302.4 0.899994 327.2 0.899994H360.5C385.3 0.899994 397.7 14.1 397.7 40.5V44.9Z" fill="#FF3F3F"/>
<path d="M469.402 152.6C469.402 158.123 473.879 162.6 479.402 162.6H505.302C510.825 162.6 515.302 167.077 515.302 172.6V188C515.302 193.523 510.825 198 505.302 198H437.402C431.88 198 427.402 193.523 427.402 188V13.9C427.402 8.37714 431.879 3.89999 437.402 3.89999H459.402C464.925 3.89999 469.402 8.37714 469.402 13.9V152.6Z" fill="#FF3F3F"/>
<path d="M612.315 0.899994C637.115 0.899994 649.515 14.1 649.515 40.5V188C649.515 193.523 645.038 198 639.515 198H617.515C611.992 198 607.515 193.523 607.515 188V142.9C607.515 137.377 603.038 132.9 597.515 132.9H587.215C581.692 132.9 577.215 137.377 577.215 142.9V188C577.215 193.523 572.738 198 567.215 198H545.215C539.692 198 535.215 193.523 535.215 188V40.5C535.215 14.1 547.615 0.899994 572.415 0.899994H612.315ZM577.215 90.5C577.215 96.0228 581.692 100.5 587.215 100.5H597.515C603.038 100.5 607.515 96.0228 607.515 90.5V35.4C607.515 33.8 606.915 32.4 605.715 31.2C604.715 30 603.415 29.4 601.815 29.4H582.915C581.315 29.4 579.915 30 578.715 31.2C577.715 32.4 577.215 33.8 577.215 35.4V90.5Z" fill="#FF3F3F"/>
<path d="M791.75 71.6479C789.883 80.7434 790.89 101.704 793.467 110.624C794.569 114.441 795.12 118.766 795.12 123.6V158.4C795.12 184.8 782.72 198 757.92 198H690.82C685.297 198 680.82 193.523 680.82 188V13.9C680.82 8.37714 685.297 3.89999 690.82 3.89999H755.52C780.32 3.89999 792.72 17.1 792.72 43.5V61.2C792.72 65.0118 792.397 68.4945 791.75 71.6479ZM745.02 32.4H732.82C727.297 32.4 722.82 36.8771 722.82 42.4V74.3C722.82 79.8229 727.297 84.3 732.82 84.3H745.02C746.62 84.3 747.92 83.7 748.92 82.5C750.12 81.3 750.72 79.9 750.72 78.3V38.4C750.72 36.8 750.12 35.4 748.92 34.2C747.92 33 746.62 32.4 745.02 32.4ZM753.12 163.2V119.7C753.12 118.1 752.52 116.7 751.32 115.5C750.32 114.3 749.02 113.7 747.42 113.7H732.82C727.297 113.7 722.82 118.177 722.82 123.7V159.2C722.82 164.723 727.297 169.2 732.82 169.2H747.42C749.02 169.2 750.32 168.6 751.32 167.4C752.52 166.2 753.12 164.8 753.12 163.2Z" fill="#FF3F3F"/>
<rect x="817.12" y="0.899994" width="51.5629" height="40.6031" rx="10" fill="#FF3F3F"/>
<rect x="961.624" y="0.899994" width="51.5629" height="40.6031" rx="10" fill="#FF3F3F"/>
<rect x="889.69" y="0.899994" width="50.9263" height="40.6031" rx="10" fill="#FD8C3A"/>
<rect x="1034.19" y="0.899994" width="50.9263" height="40.6031" rx="10" fill="#FD8C3A"/>
<rect x="817.12" y="157.297" width="51.5629" height="40.6031" rx="10" fill="#FF3F3F"/>
<rect x="961.624" y="157.297" width="51.5629" height="40.6031" rx="10" fill="#FF3F3F"/>
<rect x="817.12" y="79.0985" width="51.5629" height="40.6031" rx="10" fill="#FF3F3F"/>
<rect x="961.624" y="79.0985" width="51.5629" height="40.6031" rx="10" fill="#FF3F3F"/>
<rect x="889.69" y="157.297" width="50.9263" height="40.6031" rx="10" fill="#FD8C3A"/>
<rect x="1034.19" y="157.297" width="50.9263" height="40.6031" rx="10" fill="#FD8C3A"/>
<rect x="889.69" y="79.0985" width="50.9263" height="40.6031" rx="10" fill="#FD8C3A"/>
<rect x="1034.19" y="79.0985" width="50.9263" height="40.6031" rx="10" fill="#FD8C3A"/>
</svg>
