<svg width="534" height="548" viewBox="0 0 534 548" fill="none" xmlns="http://www.w3.org/2000/svg">
<rect x="16" y="530.766" width="75.206" height="17.234" rx="8.61702" fill="#3FBAFF"/>
<rect x="122.228" y="431.191" width="76.1461" height="17.234" rx="8.61702" fill="#FF3F3F"/>
<rect x="335.625" y="431.191" width="76.1461" height="17.234" rx="8.61702" fill="#FF3F3F"/>
<rect x="229.397" y="431.191" width="75.206" height="17.234" rx="8.61702" fill="#FD8C3A"/>
<rect x="442.794" y="431.191" width="75.206" height="17.234" rx="8.61702" fill="#FD8C3A"/>
<rect x="122.228" y="497.574" width="76.1461" height="17.234" rx="8.61702" fill="#FF3F3F"/>
<rect x="335.625" y="497.574" width="76.1461" height="17.234" rx="8.61702" fill="#FF3F3F"/>
<rect x="122.228" y="464.383" width="76.1461" height="17.234" rx="8.61702" fill="#FF3F3F"/>
<rect x="335.625" y="464.383" width="76.1461" height="17.234" rx="8.61702" fill="#FF3F3F"/>
<rect x="229.397" y="497.574" width="75.206" height="17.234" rx="8.61702" fill="#FD8C3A"/>
<rect x="442.794" y="497.574" width="75.206" height="17.234" rx="8.61702" fill="#FD8C3A"/>
<rect x="229.397" y="464.383" width="75.206" height="17.234" rx="8.61702" fill="#FD8C3A"/>
<rect x="442.794" y="464.383" width="75.206" height="17.234" rx="8.61702" fill="#FD8C3A"/>
<rect x="16" y="398" width="75.206" height="17.234" rx="8.61702" fill="#3FBAFF"/>
<rect x="16" width="130.957" height="31.2766" rx="10" fill="#FF3F3F"/>
<rect x="16" y="59.3617" width="130.957" height="90.6383" rx="10" fill="#FD8C3A"/>
<rect x="201.522" y="59.3617" width="316.478" height="31.2766" rx="10" fill="#FD8C3A"/>
<rect x="201.522" y="118.723" width="130.957" height="31.2766" rx="10" fill="#FD8C3A"/>
<rect x="387.043" y="118.723" width="130.957" height="31.2766" rx="10" fill="#FD8C3A"/>
<rect x="201.522" width="130.957" height="31.2766" rx="10" fill="#FF3F3F"/>
<rect x="387.043" width="130.957" height="31.2766" rx="10" fill="#FF3F3F"/>
<path d="M122.7 216.9C122.7 222.423 118.223 226.9 112.7 226.9H92.8C87.2771 226.9 82.8 222.423 82.8 216.9V211.6C82.8 210 82.2 208.6 81 207.4C80 206.2 78.7 205.6 77.1 205.6H60.6C59 205.6 57.6 206.2 56.4 207.4C55.4 208.6 54.9 210 54.9 211.6V246.1C54.9 247.7 55.4 249.1 56.4 250.3C57.6 251.5 59 252.1 60.6 252.1H87.6C112.4 252.5 124.8 265.7 124.8 291.7V333.4C124.8 359.8 112.4 373 87.6 373H52.2C27.4 373 15 359.8 15 333.4V323.3C15 317.777 19.4772 313.3 25 313.3H44.9C50.4229 313.3 54.9 317.777 54.9 323.3V334.9C54.9 336.5 55.4 337.9 56.4 339.1C57.6 340.3 59 340.9 60.6 340.9H79.2C80.8 340.9 82.1 340.3 83.1 339.1C84.3 337.9 84.9 336.5 84.9 334.9V296.8C84.9 295.2 84.3 293.8 83.1 292.6C82.1 291.4 80.8 290.8 79.2 290.8H52.2C27.4 290.8 15 277.6 15 251.2V212.5C15 186.1 27.4 172.9 52.2 172.9H85.5C110.3 172.9 122.7 186.1 122.7 212.5V216.9Z" fill="#FF3F3F"/>
<path d="M194.402 324.6C194.402 330.123 198.879 334.6 204.402 334.6H230.302C235.825 334.6 240.302 339.077 240.302 344.6V360C240.302 365.523 235.825 370 230.302 370H162.402C156.88 370 152.402 365.523 152.402 360V185.9C152.402 180.377 156.879 175.9 162.402 175.9H184.402C189.925 175.9 194.402 180.377 194.402 185.9V324.6Z" fill="#FF3F3F"/>
<path d="M337.315 172.9C362.115 172.9 374.515 186.1 374.515 212.5V360C374.515 365.523 370.038 370 364.515 370H342.515C336.992 370 332.515 365.523 332.515 360V314.9C332.515 309.377 328.038 304.9 322.515 304.9H312.215C306.692 304.9 302.215 309.377 302.215 314.9V360C302.215 365.523 297.738 370 292.215 370H270.215C264.692 370 260.215 365.523 260.215 360V212.5C260.215 186.1 272.615 172.9 297.415 172.9H337.315ZM302.215 262.5C302.215 268.023 306.692 272.5 312.215 272.5H322.515C328.038 272.5 332.515 268.023 332.515 262.5V207.4C332.515 205.8 331.915 204.4 330.715 203.2C329.715 202 328.415 201.4 326.815 201.4H307.915C306.315 201.4 304.915 202 303.715 203.2C302.715 204.4 302.215 205.8 302.215 207.4V262.5Z" fill="#FF3F3F"/>
<path d="M516.75 243.648C514.883 252.743 515.89 273.704 518.467 282.624C519.569 286.441 520.12 290.766 520.12 295.6V330.4C520.12 356.8 507.72 370 482.92 370H415.82C410.297 370 405.82 365.523 405.82 360V185.9C405.82 180.377 410.297 175.9 415.82 175.9H480.52C505.32 175.9 517.72 189.1 517.72 215.5V233.2C517.72 237.012 517.397 240.494 516.75 243.648ZM470.02 204.4H457.82C452.297 204.4 447.82 208.877 447.82 214.4V246.3C447.82 251.823 452.297 256.3 457.82 256.3H470.02C471.62 256.3 472.92 255.7 473.92 254.5C475.12 253.3 475.72 251.9 475.72 250.3V210.4C475.72 208.8 475.12 207.4 473.92 206.2C472.92 205 471.62 204.4 470.02 204.4ZM478.12 335.2V291.7C478.12 290.1 477.52 288.7 476.32 287.5C475.32 286.3 474.02 285.7 472.42 285.7H457.82C452.297 285.7 447.82 290.177 447.82 295.7V331.2C447.82 336.723 452.297 341.2 457.82 341.2H472.42C474.02 341.2 475.32 340.6 476.32 339.4C477.52 338.2 478.12 336.8 478.12 335.2Z" fill="#FF3F3F"/>
</svg>
